<svg width="10" height="10" viewBox="0 0 10 10" fill="none" xmlns="http://www.w3.org/2000/svg">
<path d="M0 5.45045C0.0875778 6.39813 0.44324 7.30127 1.02537 8.05419C1.6075 8.80711 2.39202 9.37867 3.28714 9.70199C4.18225 10.0253 5.15094 10.087 6.07984 9.8799C7.00875 9.67278 7.85945 9.20539 8.53242 8.53242C9.20539 7.85945 9.67278 7.00875 9.8799 6.07984C10.087 5.15094 10.0253 4.18225 9.70199 3.28714C9.37867 2.39202 8.80711 1.6075 8.05419 1.02537C7.30127 0.44324 6.39813 0.0875777 5.45045 0C6.00529 0.75063 6.27228 1.67547 6.20286 2.60631C6.13345 3.53716 5.73224 4.41217 5.0722 5.0722C4.41217 5.73224 3.53716 6.13345 2.60631 6.20286C1.67547 6.27228 0.750629 6.00529 0 5.45045Z" fill="#FFCC00"/>
</svg>
