<svg width="24" height="24" viewBox="0 0 24 24" fill="none" xmlns="http://www.w3.org/2000/svg">
<path d="M5 21C4.45 21 3.975 20.8083 3.575 20.425C3.19167 20.025 3 19.55 3 19V5C3 4.45 3.19167 3.98333 3.575 3.6C3.975 3.2 4.45 3 5 3H19C19.55 3 20.0167 3.2 20.4 3.6C20.8 3.98333 21 4.45 21 5V19C21 19.55 20.8 20.025 20.4 20.425C20.0167 20.8083 19.55 21 19 21H5ZM5 19H19V16H16C15.5 16.6333 14.9 17.125 14.2 17.475C13.5167 17.825 12.7833 18 12 18C11.2167 18 10.475 17.825 9.775 17.475C9.09167 17.125 8.5 16.6333 8 16H5V19ZM12 16C12.6333 16 13.2083 15.8167 13.725 15.45C14.2417 15.0833 14.6 14.6 14.8 14H19V5H5V14H9.2C9.4 14.6 9.75833 15.0833 10.275 15.45C10.7917 15.8167 11.3667 16 12 16ZM5 19H8C8.5 19 9.09167 19 9.775 19C10.475 19 11.2167 19 12 19C12.7833 19 13.5167 19 14.2 19C14.9 19 15.5 19 16 19H19H5Z" fill="#852221"/>
</svg>
