<svg width="11" height="11" viewBox="0 0 11 11" fill="none" xmlns="http://www.w3.org/2000/svg">
<path d="M8.98333 9.625L6.09583 6.7375C5.86667 6.92083 5.60313 7.06597 5.30521 7.17292C5.00729 7.27986 4.69028 7.33333 4.35417 7.33333C3.52153 7.33333 2.81684 7.04497 2.2401 6.46823C1.66337 5.89149 1.375 5.18681 1.375 4.35417C1.375 3.52153 1.66337 2.81684 2.2401 2.2401C2.81684 1.66337 3.52153 1.375 4.35417 1.375C5.18681 1.375 5.89149 1.66337 6.46823 2.2401C7.04497 2.81684 7.33333 3.52153 7.33333 4.35417C7.33333 4.69028 7.27986 5.00729 7.17292 5.30521C7.06597 5.60313 6.92083 5.86667 6.7375 6.09583L9.625 8.98333L8.98333 9.625ZM4.35417 6.41667C4.92708 6.41667 5.41406 6.21615 5.8151 5.8151C6.21615 5.41406 6.41667 4.92708 6.41667 4.35417C6.41667 3.78125 6.21615 3.29427 5.8151 2.89323C5.41406 2.49219 4.92708 2.29167 4.35417 2.29167C3.78125 2.29167 3.29427 2.49219 2.89323 2.89323C2.49219 3.29427 2.29167 3.78125 2.29167 4.35417C2.29167 4.92708 2.49219 5.41406 2.89323 5.8151C3.29427 6.21615 3.78125 6.41667 4.35417 6.41667Z" fill="#FEF7FF"/>
</svg>
